# xmcd
#
# Track frame offsets:
# 182
# 14627
# 28137
# 42770
# 56770
# 69717
# 83480
# 96057
# 109315
# 120160
# 133827
# 146040
# 159422
# 172630
# 185765
# 200552
# 218692
# 237762
#
# Disc length: 3372 seconds
#
# Revision: 1
# Processed by: cddbd v1.4PL0 Copyright (c) Steve Scherf et al.
# Submitted via: inCDius 2.0d1
#
DISCID=f80d2a12
DTITLE=B.J. Thomas - Greatest Hits
DYEAR=1900
DGENRE=
TTITLE0=I'm So Lonesome I Could Cry
TTITLE1=Mama
TTITLE2=Billy and Sue
TTITLE3=Bring Back the Time
TTITLE4=I Can't Help It (If I'm Still In Love With You)
TTITLE5=The Eyes of a New York Woman
TTITLE6=Hooked on a Feeling
TTITLE7=It's Only Love
TTITLE8=Pass the Apple Eve
TTITLE9=Raindrops Keep Fallin' on my Head
TTITLE10=Everybody's Out of Town
TTITLE11=I Just Can't Help Believing
TTITLE12=Most of All
TTITLE13=No Love at All
TTITLE14=Mighty Clouds of Joy
TTITLE15=Long Ago Tomorrow
TTITLE16=Rock and Roll Lullaby
TTITLE17=(Hey Won't You Play) Another Somebody Done Somebody Wrong Song
EXTD=
EXTT0=
EXTT1=
EXTT2=
EXTT3=CD Bonus Track
EXTT4=CD Bonus Track
EXTT5=
EXTT6=
EXTT7=
EXTT8=CD Bonus Track
EXTT9=
EXTT10=
EXTT11=
EXTT12=
EXTT13=
EXTT14=
EXTT15=CD Bonus Track
EXTT16=
EXTT17=
PLAYORDER=
